<svg width="162" height="26" viewBox="0 0 162 26" fill="none" xmlns="http://www.w3.org/2000/svg">
<g clip-path="url(#clip0_7_14)">
<path d="M1.218 25H26.782V22.5H1.218V25ZM6.08692 9.60753L0 5.00006L1.11916 18.75L6.08692 9.60753ZM9.7391 19.9999H26.7793L28 5.00006L9.7391 19.9999ZM20.6956 9.24744L6.37756 19.9999H2.43474L9.70998 7.76006L14.3539 0L20.6956 9.24744Z" fill="white"/>
</g>
<path d="M39.1364 21.2131C38.0189 21.2131 37.0578 20.9763 36.2528 20.5028C35.4527 20.0246 34.8371 19.3617 34.4062 18.5142C33.9801 17.6667 33.767 16.6913 33.767 15.5881C33.767 14.4706 33.9825 13.4905 34.4134 12.6477C34.849 11.8002 35.4669 11.1397 36.267 10.6662C37.0672 10.188 38.0189 9.94886 39.1222 9.94886C40.0739 9.94886 40.9072 10.1217 41.6222 10.4673C42.3371 10.813 42.9029 11.2983 43.3196 11.9233C43.7363 12.5483 43.9659 13.2822 44.0085 14.125H41.1534C41.0729 13.5805 40.8598 13.1425 40.5142 12.8111C40.1733 12.4749 39.7259 12.3068 39.1719 12.3068C38.7031 12.3068 38.2936 12.4347 37.9432 12.6903C37.5975 12.9413 37.3277 13.3082 37.1335 13.7912C36.9394 14.2741 36.8423 14.8589 36.8423 15.5455C36.8423 16.2415 36.937 16.8333 37.1264 17.321C37.3205 17.8087 37.5928 18.1804 37.9432 18.4361C38.2936 18.6918 38.7031 18.8196 39.1719 18.8196C39.5175 18.8196 39.8277 18.7486 40.1023 18.6065C40.3816 18.4645 40.6113 18.2585 40.7912 17.9886C40.9759 17.714 41.0966 17.3849 41.1534 17.0014H44.0085C43.9612 17.8348 43.7339 18.5687 43.3267 19.2031C42.9242 19.8329 42.3679 20.3253 41.6577 20.6804C40.9474 21.0355 40.107 21.2131 39.1364 21.2131ZM50.8746 21.2131C49.7714 21.2131 48.8174 20.9787 48.0124 20.5099C47.2122 20.0365 46.5943 19.3783 46.1587 18.5355C45.7231 17.688 45.5053 16.7055 45.5053 15.5881C45.5053 14.4612 45.7231 13.4763 46.1587 12.6335C46.5943 11.786 47.2122 11.1278 48.0124 10.6591C48.8174 10.1856 49.7714 9.94886 50.8746 9.94886C51.9779 9.94886 52.9296 10.1856 53.7298 10.6591C54.5347 11.1278 55.1549 11.786 55.5906 12.6335C56.0262 13.4763 56.244 14.4612 56.244 15.5881C56.244 16.7055 56.0262 17.688 55.5906 18.5355C55.1549 19.3783 54.5347 20.0365 53.7298 20.5099C52.9296 20.9787 51.9779 21.2131 50.8746 21.2131ZM50.8888 18.8693C51.3907 18.8693 51.8098 18.7273 52.146 18.4432C52.4821 18.1544 52.7354 17.7614 52.9059 17.2642C53.0811 16.767 53.1687 16.2012 53.1687 15.5668C53.1687 14.9323 53.0811 14.3665 52.9059 13.8693C52.7354 13.3722 52.4821 12.9792 52.146 12.6903C51.8098 12.4015 51.3907 12.2571 50.8888 12.2571C50.3822 12.2571 49.9561 12.4015 49.6104 12.6903C49.2695 12.9792 49.0115 13.3722 48.8363 13.8693C48.6658 14.3665 48.5806 14.9323 48.5806 15.5668C48.5806 16.2012 48.6658 16.767 48.8363 17.2642C49.0115 17.7614 49.2695 18.1544 49.6104 18.4432C49.9561 18.7273 50.3822 18.8693 50.8888 18.8693ZM58.2113 21V10.0909H61.2369V21H58.2113ZM59.7312 8.68466C59.2814 8.68466 58.8955 8.53551 58.5735 8.23722C58.2563 7.93419 58.0977 7.57197 58.0977 7.15057C58.0977 6.7339 58.2563 6.37642 58.5735 6.07812C58.8955 5.77509 59.2814 5.62358 59.7312 5.62358C60.181 5.62358 60.5645 5.77509 60.8817 6.07812C61.2037 6.37642 61.3647 6.7339 61.3647 7.15057C61.3647 7.57197 61.2037 7.93419 60.8817 8.23722C60.5645 8.53551 60.181 8.68466 59.7312 8.68466ZM66.6861 14.6932V21H63.6605V10.0909H66.544V12.0156H66.6719C66.9134 11.3812 67.3182 10.8793 67.8864 10.5099C68.4545 10.1359 69.1435 9.94886 69.9531 9.94886C70.7107 9.94886 71.3712 10.1146 71.9347 10.446C72.4981 10.7775 72.9361 11.2509 73.2486 11.8665C73.5611 12.4773 73.7173 13.2064 73.7173 14.054V21H70.6918V14.5938C70.6965 13.9261 70.526 13.4053 70.1804 13.0312C69.8348 12.6525 69.3589 12.4631 68.7528 12.4631C68.3456 12.4631 67.9858 12.5507 67.6733 12.7259C67.3655 12.901 67.1241 13.1567 66.9489 13.4929C66.7784 13.8243 66.6908 14.2244 66.6861 14.6932ZM79.0423 6.45455L81.9755 11.4119H82.0891L85.0366 6.45455H88.5096L84.0707 13.7273L88.609 21H85.0721L82.0891 16.0355H81.9755L78.9925 21H75.4698L80.0224 13.7273L75.555 6.45455H79.0423ZM94.7614 21.2131C93.6439 21.2131 92.6828 20.9763 91.8778 20.5028C91.0777 20.0246 90.4621 19.3617 90.0312 18.5142C89.6051 17.6667 89.392 16.6913 89.392 15.5881C89.392 14.4706 89.6075 13.4905 90.0384 12.6477C90.474 11.8002 91.0919 11.1397 91.892 10.6662C92.6922 10.188 93.6439 9.94886 94.7472 9.94886C95.6989 9.94886 96.5322 10.1217 97.2472 10.4673C97.9621 10.813 98.5279 11.2983 98.9446 11.9233C99.3613 12.5483 99.5909 13.2822 99.6335 14.125H96.7784C96.6979 13.5805 96.4848 13.1425 96.1392 12.8111C95.7983 12.4749 95.3509 12.3068 94.7969 12.3068C94.3281 12.3068 93.9186 12.4347 93.5682 12.6903C93.2225 12.9413 92.9527 13.3082 92.7585 13.7912C92.5644 14.2741 92.4673 14.8589 92.4673 15.5455C92.4673 16.2415 92.562 16.8333 92.7514 17.321C92.9455 17.8087 93.2178 18.1804 93.5682 18.4361C93.9186 18.6918 94.3281 18.8196 94.7969 18.8196C95.1425 18.8196 95.4527 18.7486 95.7273 18.6065C96.0066 18.4645 96.2363 18.2585 96.4162 17.9886C96.6009 17.714 96.7216 17.3849 96.7784 17.0014H99.6335C99.5862 17.8348 99.3589 18.5687 98.9517 19.2031C98.5492 19.8329 97.9929 20.3253 97.2827 20.6804C96.5724 21.0355 95.732 21.2131 94.7614 21.2131ZM104.596 14.6932V21H101.571V6.45455H104.511V12.0156H104.639C104.885 11.3717 105.283 10.8674 105.832 10.5028C106.381 10.1335 107.07 9.94886 107.899 9.94886C108.656 9.94886 109.317 10.1146 109.88 10.446C110.449 10.7727 110.889 11.2438 111.201 11.8594C111.519 12.4702 111.675 13.2017 111.67 14.054V21H108.645V14.5938C108.649 13.9214 108.479 13.3982 108.133 13.0241C107.792 12.6501 107.314 12.4631 106.699 12.4631C106.287 12.4631 105.922 12.5507 105.605 12.7259C105.292 12.901 105.046 13.1567 104.866 13.4929C104.691 13.8243 104.601 14.2244 104.596 14.6932ZM117.162 21.206C116.466 21.206 115.846 21.0852 115.301 20.8438C114.757 20.5975 114.326 20.2353 114.009 19.7571C113.696 19.2741 113.54 18.6728 113.54 17.9531C113.54 17.3471 113.651 16.8381 113.874 16.4261C114.096 16.0142 114.399 15.6828 114.783 15.4318C115.166 15.1809 115.602 14.9915 116.089 14.8636C116.582 14.7358 117.098 14.6458 117.638 14.5938C118.272 14.5275 118.784 14.4659 119.172 14.4091C119.56 14.3475 119.842 14.2576 120.017 14.1392C120.192 14.0208 120.28 13.8456 120.28 13.6136V13.571C120.28 13.1212 120.138 12.7732 119.854 12.527C119.574 12.2808 119.177 12.1577 118.661 12.1577C118.116 12.1577 117.683 12.2784 117.361 12.5199C117.039 12.7566 116.826 13.0549 116.722 13.4148L113.923 13.1875C114.065 12.5246 114.345 11.9517 114.761 11.4688C115.178 10.9811 115.715 10.607 116.374 10.3466C117.036 10.0814 117.804 9.94886 118.675 9.94886C119.281 9.94886 119.861 10.0199 120.415 10.1619C120.973 10.304 121.468 10.5241 121.899 10.8224C122.335 11.1207 122.678 11.5043 122.929 11.973C123.18 12.437 123.305 12.9934 123.305 13.642V21H120.436V19.4872H120.351C120.176 19.8281 119.941 20.1288 119.648 20.3892C119.354 20.6449 119.001 20.8461 118.589 20.9929C118.178 21.1349 117.702 21.206 117.162 21.206ZM118.028 19.1179C118.473 19.1179 118.866 19.0303 119.207 18.8551C119.548 18.6752 119.816 18.4337 120.01 18.1307C120.204 17.8277 120.301 17.4844 120.301 17.1009V15.9432C120.206 16.0047 120.076 16.0616 119.911 16.1136C119.75 16.161 119.567 16.206 119.364 16.2486C119.16 16.2865 118.956 16.322 118.753 16.3551C118.549 16.3835 118.365 16.4096 118.199 16.4332C117.844 16.4853 117.534 16.5682 117.268 16.6818C117.003 16.7955 116.797 16.9493 116.651 17.1435C116.504 17.3329 116.43 17.5696 116.43 17.8537C116.43 18.2656 116.58 18.5805 116.878 18.7983C117.181 19.0114 117.564 19.1179 118.028 19.1179ZM128.678 14.6932V21H125.653V10.0909H128.536V12.0156H128.664C128.906 11.3812 129.31 10.8793 129.879 10.5099C130.447 10.1359 131.136 9.94886 131.945 9.94886C132.703 9.94886 133.363 10.1146 133.927 10.446C134.49 10.7775 134.928 11.2509 135.241 11.8665C135.553 12.4773 135.71 13.2064 135.71 14.054V21H132.684V14.5938C132.689 13.9261 132.518 13.4053 132.173 13.0312C131.827 12.6525 131.351 12.4631 130.745 12.4631C130.338 12.4631 129.978 12.5507 129.665 12.7259C129.358 12.901 129.116 13.1567 128.941 13.4929C128.771 13.8243 128.683 14.2244 128.678 14.6932ZM143.009 25.3182C142.029 25.3182 141.188 25.1832 140.488 24.9134C139.792 24.6482 139.238 24.286 138.826 23.8267C138.414 23.3674 138.146 22.8513 138.023 22.2784L140.821 21.902C140.907 22.1198 141.042 22.3234 141.226 22.5128C141.411 22.7022 141.655 22.8537 141.958 22.9673C142.266 23.0857 142.64 23.1449 143.08 23.1449C143.738 23.1449 144.28 22.9839 144.706 22.6619C145.137 22.3447 145.353 21.812 145.353 21.0639V19.0682H145.225C145.092 19.3712 144.893 19.6577 144.628 19.9276C144.363 20.1974 144.022 20.4176 143.605 20.5881C143.189 20.7585 142.692 20.8438 142.114 20.8438C141.295 20.8438 140.549 20.6544 139.877 20.2756C139.209 19.892 138.676 19.3073 138.279 18.5213C137.886 17.7306 137.689 16.7315 137.689 15.5241C137.689 14.2884 137.891 13.2562 138.293 12.4276C138.695 11.599 139.23 10.9787 139.898 10.5668C140.57 10.1548 141.307 9.94886 142.107 9.94886C142.718 9.94886 143.229 10.053 143.641 10.2614C144.053 10.465 144.384 10.7206 144.635 11.0284C144.891 11.3314 145.087 11.6297 145.225 11.9233H145.338V10.0909H148.343V21.1065C148.343 22.0346 148.115 22.8111 147.661 23.4361C147.206 24.0611 146.577 24.5298 145.772 24.8423C144.971 25.1596 144.051 25.3182 143.009 25.3182ZM143.073 18.571C143.56 18.571 143.972 18.4503 144.309 18.2088C144.65 17.9626 144.91 17.6122 145.09 17.1577C145.275 16.6984 145.367 16.1491 145.367 15.5099C145.367 14.8707 145.277 14.3168 145.097 13.848C144.917 13.3745 144.657 13.0076 144.316 12.7472C143.975 12.4867 143.56 12.3565 143.073 12.3565C142.576 12.3565 142.157 12.4915 141.816 12.7614C141.475 13.0265 141.217 13.3958 141.042 13.8693C140.866 14.3428 140.779 14.8897 140.779 15.5099C140.779 16.1397 140.866 16.6842 141.042 17.1435C141.221 17.598 141.48 17.9508 141.816 18.2017C142.157 18.4479 142.576 18.571 143.073 18.571ZM155.722 21.2131C154.6 21.2131 153.634 20.9858 152.824 20.5312C152.019 20.072 151.399 19.4233 150.963 18.5852C150.528 17.7424 150.31 16.7457 150.31 15.5952C150.31 14.473 150.528 13.4882 150.963 12.6406C151.399 11.7931 152.012 11.1326 152.803 10.6591C153.598 10.1856 154.531 9.94886 155.601 9.94886C156.321 9.94886 156.991 10.0649 157.611 10.2969C158.236 10.5241 158.781 10.8674 159.245 11.3267C159.713 11.786 160.078 12.3636 160.338 13.0597C160.599 13.7509 160.729 14.5606 160.729 15.4886V16.3196H151.517V14.4446H157.881C157.881 14.009 157.786 13.6231 157.597 13.2869C157.408 12.9508 157.145 12.688 156.809 12.4986C156.477 12.3045 156.091 12.2074 155.651 12.2074C155.192 12.2074 154.784 12.3139 154.429 12.527C154.079 12.7353 153.804 13.017 153.605 13.3722C153.407 13.7225 153.305 14.1132 153.3 14.544V16.3267C153.3 16.8665 153.4 17.3329 153.598 17.7259C153.802 18.1188 154.088 18.4219 154.458 18.6349C154.827 18.848 155.265 18.9545 155.772 18.9545C156.108 18.9545 156.416 18.9072 156.695 18.8125C156.974 18.7178 157.213 18.5758 157.412 18.3864C157.611 18.197 157.763 17.965 157.867 17.6903L160.665 17.875C160.523 18.5473 160.232 19.1345 159.792 19.6364C159.356 20.1335 158.792 20.5218 158.101 20.8011C157.415 21.0758 156.622 21.2131 155.722 21.2131Z" fill="white"/>
<defs>
<clipPath id="clip0_7_14">
<rect width="28" height="25" fill="white"/>
</clipPath>
</defs>
</svg>
